{"title":"The Sculptress S01","uid":15415085,"size":1350224800,"categoryP":"video","categoryS":"tv_shows","magnet":"?xt=urn:btih:7c1251f2dd83c5e74aff4d5f3d4a6a6d994b563f&amp;dn=The+Sculptress+S01&amp;tr=udp%3A%2F%2Ftracker.leechers-paradise.org%3A6969&amp;tr=udp%3A%2F%2Fzer0day.ch%3A1337&amp;tr=udp%3A%2F%2Fopen.demonii.com%3A1337&amp;tr=udp%3A%2F%2Ftracker.coppersurfer.tk%3A6969&amp;tr=udp%3A%2F%2Fexodus.desync.com%3A6969","seeders":3,"leechers":1,"uploader":"RedBaron58","files":2,"time":1469583144,"description":"The Sculptress S01 x264 mp4\r\n  \nhttp://www.imdb.com/title/tt0117574/\r\n\r\nTrailer clip:\r\n\r\nThank you for your kind comments and feedback on my other torrents, your feedback is welcome.\r\n\r\n\r\nAbout the Series:\r\nOlive Martin a 28-year-old, morbidly obese woman was imprisoned for life after police found \r\nher cradling the shattered bodies of her mother and sister, having previously dismembered them \r\nand re-arranged their limbs into abstract shapes on the floor, a crime for which she was \r\nnicknamed 'the Sculptress'. \r\nTroubled journalist Rosalind Leigh, under pressure from her publisher to produce new material, \r\nreluctantly agrees to write a book about Olive and whilst conducting interviews with \r\nthe prisoner gradually comes to believe that she is concealing something, maybe even \r\nher own innocence.\r\nStarring Pauline Quirke, Caroline Goodall and Christopher Fulford.\r\n\r\n\r\nI hope you enjoy.\r\n\r\n\r\nTechnical: (All episodes are encoded to the same settings)\r\n\r\nGeneral\r\nComplete name                            : I:The Sculptress S01The Sculptress S01E01 x264 RB58.mp4\r\nFormat                                   : MPEG-4\r\nFormat profile                           : Base Media / Version 2\r\nCodec ID                                 : mp42\r\nFile size                                : 644 MiB\r\nDuration                                 : 1h 29mn\r\nOverall bit rate mode                    : Variable\r\nOverall bit rate                         : 1 000 Kbps\r\nEncoded date                             : UTC 2016-07-17 23:02:27\r\nTagged date                              : UTC 2016-07-17 23:05:48\r\nWriting application                      : HandBrake 0.9.8 2012071700\r\n\r\nVideo\r\nID                                       : 1\r\nFormat                                   : AVC\r\nFormat/Info                              : Advanced Video Codec\r\nFormat profile                           :   \r\nFormat settings, CABAC                   : Yes\r\nFormat settings, ReFrames                : 4 frames\r\nCodec ID                                 : avc1\r\nCodec ID/Info                            : Advanced Video Coding\r\nDuration                                 : 1h 29mn\r\nBit rate                                 : 900 Kbps\r\nWidth                                    : 698 pixels\r\nHeight                                   : 574 pixels\r\nDisplay aspect ratio                     : 1.298\r\nOriginal display aspect ratio            : 1.297\r\nFrame rate mode                          : Constant\r\nFrame rate                               : 25.000 fps\r\nColor space                              : YUV\r\nChroma subsampling                       : 4:2:0\r\nBit depth                                : 8 bits\r\nScan type                                : Progressive\r\nBits/(Pixel*Frame)                       : 0.090\r\nStream size                              : 579 MiB (90%)\r\nWriting library                          : x264 core 120\r\nEncoding settings                        : cabac=1 / ref=1 / deblock=1:0:0\r\nEncoded date                             : UTC 2016-07-17 23:02:27\r\nTagged date                              : UTC 2016-07-17 23:05:48\r\nColor range                              : Limited\r\nColor primaries                          : BT.601 NTSC\r\nTransfer characteristics                 : BT.709\r\nMatrix coefficients                      : BT.601\r\n\r\nAudio\r\nID                                       : 2\r\nFormat                                   : AAC\r\nFormat/Info                              : Advanced Audio Codec\r\nFormat profile                           : LC\r\nCodec ID                                 : 40\r\nDuration                                 : 1h 29mn\r\nBit rate mode                            : Variable\r\nBit rate                                 : 96.0 Kbps\r\nMaximum bit rate                         : 126 Kbps\r\nChannel(s)                               : 2 channels\r\nChannel positions                        : Front: L R\r\nSampling rate                            : 48.0 KHz\r\nCompression mode                         : Lossy\r\nStream size                              : 61.8 MiB (10%)\r\nTitle                                    : Stereo\r\nLanguage                                 : English","torrent":{"xt":"urn:btih:7c1251f2dd83c5e74aff4d5f3d4a6a6d994b563f","amp;dn":"The+Sculptress+S01","amp;tr":["udp%3A%2F%2Ftracker.leechers-paradise.org%3A6969","udp%3A%2F%2Fzer0day.ch%3A1337","udp%3A%2F%2Fopen.demonii.com%3A1337","udp%3A%2F%2Ftracker.coppersurfer.tk%3A6969","udp%3A%2F%2Fexodus.desync.com%3A6969"],"infoHash":"7c1251f2dd83c5e74aff4d5f3d4a6a6d994b563f","infoHashBuffer":{"type":"Buffer","data":[124,18,81,242,221,131,197,231,74,255,77,95,61,74,106,109,153,75,86,63]},"announce":[],"urlList":[]}}